<?xml version="1.0" encoding="utf-8"?>
<!-- Generator: Adobe Illustrator 28.0.0, SVG Export Plug-In . SVG Version: 6.00 Build 0)  -->
<svg version="1.1" id="Layer_1" xmlns="http://www.w3.org/2000/svg" xmlns:xlink="http://www.w3.org/1999/xlink" x="0px" y="0px"
	 viewBox="0 0 841.89 595.28" style="enable-background:new 0 0 841.89 595.28;" xml:space="preserve">
<style type="text/css">
	.st0{fill:#FBE9B6;}
	.st1{fill:#F8D36D;}
	.st2{fill:#FFFFFF;}
	.st3{fill:#664E12;}
	.st4{fill:#D85E0B;}
	.st5{fill:#8C8B8B;}
	.st6{fill:#2121B7;}
	.st7{fill:#C44A14;}
	.st8{fill:#F7E2E9;}
	.st9{fill:#E874A1;}
	.st10{fill:#E03258;}
	.st11{fill:#F7D157;}
	.st12{fill:#7A58F4;}
</style>
<path class="st0" d="M123.82,211.63h25.93c2.42,0,4.39-1.98,4.39-4.39v-23.79c0-2.42-1.98-4.39-4.39-4.39h-25.93
	c-2.42,0-4.39,1.98-4.39,4.39v23.79C119.43,209.66,121.41,211.63,123.82,211.63z"/>
<g>
	<path class="st1" d="M435.87,16.42c10.1,30.07,9.89,63.56,0.47,93.77c-10.1,32.41-34.09,53.93-55.04,79.22
		c-10.71,12.93-19.56,28.77-18.5,45.52c1.17,18.39,13.77,33.66,23.21,49.49c29.75,49.87,17.74,108.75-34.12,137.23
		c-39.24,21.55-84.06,23.74-125.2,40.15c-26.5,10.57-51.54,26.46-68.69,49.25c-9.83,13.07-17.21,28.47-30.24,38.34
		c-11.02,8.35-25.58,11.86-39.19,9.47s-26.1-10.66-33.61-22.27c-10.32-15.95-10.83-36.47-7.13-55.1s11.19-36.29,15.87-54.7
		c4.68-18.41,6.37-38.53-1.31-55.9c-5.65-12.77-15.88-22.95-26.81-31.64c-6.85-5.44-14.06-10.41-21.58-14.88
		c-7.82-4.65-19.55-7.52-26.38-13.17c-10.83-8.96-5.68-30.83-6.58-43.53c-1.68-23.85-3.36-47.7-5.04-71.56v-79.71V-5.31l266.14-6
		L430.02-1.02C430.02-1.02,435.86,16.38,435.87,16.42z"/>
	<path class="st1" d="M435.87,16.42c10.1,30.07,9.89,63.56,0.47,93.77c-10.1,32.41-34.09,53.93-55.04,79.22
		c-10.71,12.93-19.56,28.77-18.5,45.52c1.17,18.39,13.77,33.66,23.21,49.49c29.75,49.87,17.74,108.75-34.12,137.23
		c-39.24,21.55-84.06,23.74-125.2,40.15c-26.5,10.57-51.54,26.46-68.69,49.25c-9.83,13.07-17.21,28.47-30.24,38.34
		c-11.02,8.35-25.58,11.86-39.19,9.47s-26.1-10.66-33.61-22.27c-10.32-15.95-10.83-36.47-7.13-55.1s11.19-36.29,15.87-54.7
		c4.68-18.41,6.37-38.53-1.31-55.9c-5.65-12.77-15.88-22.95-26.81-31.64c-6.85-5.44-14.06-10.41-21.58-14.88
		c-7.82-4.65-19.55-7.52-26.38-13.17c-10.83-8.96-5.68-30.83-6.58-43.53c-1.68-23.85-3.36-47.7-5.04-71.56v-79.71V-5.31l266.14-6
		L430.02-1.02C430.02-1.02,435.86,16.38,435.87,16.42z"/>
	<path class="st1" d="M435.87,16.42c10.1,30.07,9.89,63.56,0.47,93.77c-10.1,32.41-34.09,53.93-55.04,79.22
		c-10.71,12.93-19.56,28.77-18.5,45.52c1.17,18.39,13.77,33.66,23.21,49.49c29.75,49.87,17.74,108.75-34.12,137.23
		c-39.24,21.55-84.06,23.74-125.2,40.15c-26.5,10.57-51.54,26.46-68.69,49.25c-9.83,13.07-17.21,28.47-30.24,38.34
		c-11.02,8.35-25.58,11.86-39.19,9.47s-26.1-10.66-33.61-22.27c-10.32-15.95-10.83-36.47-7.13-55.1s11.19-36.29,15.87-54.7
		c4.68-18.41,6.37-38.53-1.31-55.9c-5.65-12.77-15.88-22.95-26.81-31.64c-6.85-5.44-14.06-10.41-21.58-14.88
		c-7.82-4.65-19.55-7.52-26.38-13.17c-10.83-8.96-5.68-30.83-6.58-43.53c-1.68-23.85-3.36-47.7-5.04-71.56v-79.71V-5.31l266.14-6
		L430.02-1.02C430.02-1.02,435.86,16.38,435.87,16.42z"/>
	<path class="st1" d="M435.87,16.42c10.1,30.07,9.89,63.56,0.47,93.77c-10.1,32.41-34.09,53.93-55.04,79.22
		c-10.71,12.93-19.56,28.77-18.5,45.52c1.17,18.39,13.77,33.66,23.21,49.49c29.75,49.87,17.74,108.75-34.12,137.23
		c-39.24,21.55-84.06,23.74-125.2,40.15c-26.5,10.57-51.54,26.46-68.69,49.25c-9.83,13.07-17.21,28.47-30.24,38.34
		c-11.02,8.35-25.58,11.86-39.19,9.47s-26.1-10.66-33.61-22.27c-10.32-15.95-10.83-36.47-7.13-55.1s11.19-36.29,15.87-54.7
		c4.68-18.41,6.37-38.53-1.31-55.9c-5.65-12.77-15.88-22.95-26.81-31.64c-6.85-5.44-14.06-10.41-21.58-14.88
		c-7.82-4.65-19.55-7.52-26.38-13.17c-10.83-8.96-5.68-30.83-6.58-43.53c-1.68-23.85-3.36-47.7-5.04-71.56v-79.71V-5.31l266.14-6
		L430.02-1.02C430.02-1.02,435.86,16.38,435.87,16.42z"/>
	<path class="st1" d="M435.87,16.42c10.1,30.07,9.89,63.56,0.47,93.77c-10.1,32.41-34.09,53.93-55.04,79.22
		c-10.71,12.93-19.56,28.77-18.5,45.52c1.17,18.39,13.77,33.66,23.21,49.49c29.75,49.87,17.74,108.75-34.12,137.23
		c-39.24,21.55-84.06,23.74-125.2,40.15c-26.5,10.57-51.54,26.46-68.69,49.25c-9.83,13.07-17.21,28.47-30.24,38.34
		c-11.02,8.35-25.58,11.86-39.19,9.47s-26.1-10.66-33.61-22.27c-10.32-15.95-10.83-36.47-7.13-55.1s11.19-36.29,15.87-54.7
		c4.68-18.41,6.37-38.53-1.31-55.9c-5.65-12.77-15.88-22.95-26.81-31.64c-6.85-5.44-14.06-10.41-21.58-14.88
		c-7.82-4.65-19.55-7.52-26.38-13.17c-10.83-8.96-5.68-30.83-6.58-43.53c-1.68-23.85-3.36-47.7-5.04-71.56v-79.71V-5.31l266.14-6
		L430.02-1.02C430.02-1.02,435.86,16.38,435.87,16.42z"/>
	<path class="st1" d="M435.87,16.42c10.1,30.07,9.89,63.56,0.47,93.77c-10.1,32.41-34.09,53.93-55.04,79.22
		c-10.71,12.93-19.56,28.77-18.5,45.52c1.17,18.39,13.77,33.66,23.21,49.49c29.75,49.87,17.74,108.75-34.12,137.23
		c-39.24,21.55-84.06,23.74-125.2,40.15c-26.5,10.57-51.54,26.46-68.69,49.25c-9.83,13.07-17.21,28.47-30.24,38.34
		c-11.02,8.35-25.58,11.86-39.19,9.47s-26.1-10.66-33.61-22.27c-10.32-15.95-10.83-36.47-7.13-55.1s11.19-36.29,15.87-54.7
		c4.68-18.41,6.37-38.53-1.31-55.9c-5.65-12.77-15.88-22.95-26.81-31.64c-6.85-5.44-14.06-10.41-21.58-14.88
		c-7.82-4.65-19.55-7.52-26.38-13.17c-10.83-8.96-5.68-30.83-6.58-43.53c-1.68-23.85-3.36-47.7-5.04-71.56v-79.71V-5.31l266.14-6
		L430.02-1.02C430.02-1.02,435.86,16.38,435.87,16.42z"/>
	<path class="st1" d="M435.87,16.42c10.1,30.07,9.89,63.56,0.47,93.77c-10.1,32.41-34.09,53.93-55.04,79.22
		c-10.71,12.93-19.56,28.77-18.5,45.52c1.17,18.39,13.77,33.66,23.21,49.49c29.75,49.87,17.74,108.75-34.12,137.23
		c-39.24,21.55-84.06,23.74-125.2,40.15c-26.5,10.57-51.54,26.46-68.69,49.25c-9.83,13.07-17.21,28.47-30.24,38.34
		c-11.02,8.35-25.58,11.86-39.19,9.47s-26.1-10.66-33.61-22.27c-10.32-15.95-10.83-36.47-7.13-55.1s11.19-36.29,15.87-54.7
		c4.68-18.41,6.37-38.53-1.31-55.9c-5.65-12.77-15.88-22.95-26.81-31.64c-6.85-5.44-14.06-10.41-21.58-14.88
		c-7.82-4.65-19.55-7.52-26.38-13.17c-10.83-8.96-5.68-30.83-6.58-43.53c-1.68-23.85-3.36-47.7-5.04-71.56v-79.71V-5.31l266.14-6
		L430.02-1.02C430.02-1.02,435.86,16.38,435.87,16.42z"/>
	<path class="st1" d="M435.87,16.42c10.1,30.07,9.89,63.56,0.47,93.77c-10.1,32.41-34.09,53.93-55.04,79.22
		c-10.71,12.93-19.56,28.77-18.5,45.52c1.17,18.39,13.77,33.66,23.21,49.49c29.75,49.87,17.74,108.75-34.12,137.23
		c-39.24,21.55-84.06,23.74-125.2,40.15c-26.5,10.57-51.54,26.46-68.69,49.25c-9.83,13.07-17.21,28.47-30.24,38.34
		c-11.02,8.35-25.58,11.86-39.19,9.47s-26.1-10.66-33.61-22.27c-10.32-15.95-10.83-36.47-7.13-55.1s11.19-36.29,15.87-54.7
		c4.68-18.41,6.37-38.53-1.31-55.9c-5.65-12.77-15.88-22.95-26.81-31.64c-6.85-5.44-14.06-10.41-21.58-14.88
		c-7.82-4.65-19.55-7.52-26.38-13.17c-10.83-8.96-5.68-30.83-6.58-43.53c-1.68-23.85-3.36-47.7-5.04-71.56v-79.71V-5.31l266.14-6
		L430.02-1.02C430.02-1.02,435.86,16.38,435.87,16.42z"/>
	<path class="st2" d="M121.14,200.79h-19.71c-2.64,0-4.8-2.16-4.8-4.8v-19.71c0-2.64,2.16-4.8,4.8-4.8h19.71
		c2.64,0,4.8,2.16,4.8,4.8v19.71C125.94,198.63,123.78,200.79,121.14,200.79z"/>
</g>
<path class="st0" d="M123.82,211.63h25.93c2.42,0,4.39-1.98,4.39-4.39v-23.79c0-2.42-1.98-4.39-4.39-4.39h-25.93
	c-2.42,0-4.39,1.98-4.39,4.39v23.79C119.43,209.66,121.41,211.63,123.82,211.63z"/>
<path class="st2" d="M323.86,237.13L323.86,237.13c1.57,0,2.86-1.29,2.86-2.86l0,0c0-1.57-1.29-2.86-2.86-2.86l0,0
	c-1.57,0-2.86,1.29-2.86,2.86l0,0C321,235.85,322.29,237.13,323.86,237.13z"/>
<path class="st2" d="M309,237.13L309,237.13c1.57,0,2.86-1.29,2.86-2.86l0,0c0-1.57-1.29-2.86-2.86-2.86l0,0
	c-1.57,0-2.86,1.29-2.86,2.86l0,0C306.14,235.85,307.43,237.13,309,237.13z"/>
<path class="st2" d="M295,237.13L295,237.13c1.57,0,2.86-1.29,2.86-2.86l0,0c0-1.57-1.29-2.86-2.86-2.86l0,0
	c-1.57,0-2.86,1.29-2.86,2.86l0,0C292.14,235.85,293.43,237.13,295,237.13z"/>
<path class="st2" d="M279.57,237.13L279.57,237.13c1.57,0,2.86-1.29,2.86-2.86l0,0c0-1.57-1.29-2.86-2.86-2.86h0
	c-1.57,0-2.86,1.29-2.86,2.86l0,0C276.71,235.85,278,237.13,279.57,237.13z"/>
<path class="st2" d="M310.43,250.56L310.43,250.56c1.57,0,2.86-1.29,2.86-2.86l0,0c0-1.57-1.29-2.86-2.86-2.86h0
	c-1.57,0-2.86,1.29-2.86,2.86l0,0C307.57,249.28,308.86,250.56,310.43,250.56z"/>
<path class="st2" d="M323.86,250.56L323.86,250.56c1.57,0,2.86-1.29,2.86-2.86l0,0c0-1.57-1.29-2.86-2.86-2.86l0,0
	c-1.57,0-2.86,1.29-2.86,2.86l0,0C321,249.28,322.29,250.56,323.86,250.56z"/>
<path class="st2" d="M338.14,250.56L338.14,250.56c1.57,0,2.86-1.29,2.86-2.86l0,0c0-1.57-1.29-2.86-2.86-2.86l0,0
	c-1.57,0-2.86,1.29-2.86,2.86l0,0C335.29,249.28,336.57,250.56,338.14,250.56z"/>
<path class="st2" d="M338.14,265.13L338.14,265.13c1.57,0,2.86-1.29,2.86-2.86l0,0c0-1.57-1.29-2.86-2.86-2.86l0,0
	c-1.57,0-2.86,1.29-2.86,2.86l0,0C335.29,263.85,336.57,265.13,338.14,265.13z"/>
<path class="st2" d="M323.86,265.13L323.86,265.13c1.57,0,2.86-1.29,2.86-2.86l0,0c0-1.57-1.29-2.86-2.86-2.86l0,0
	c-1.57,0-2.86,1.29-2.86,2.86l0,0C321,263.85,322.29,265.13,323.86,265.13z"/>
<path class="st2" d="M310.43,265.13L310.43,265.13c1.57,0,2.86-1.29,2.86-2.86l0,0c0-1.57-1.29-2.86-2.86-2.86h0
	c-1.57,0-2.86,1.29-2.86,2.86l0,0C307.57,263.85,308.86,265.13,310.43,265.13z"/>
<path class="st2" d="M295,265.13L295,265.13c1.57,0,2.86-1.29,2.86-2.86l0,0c0-1.57-1.29-2.86-2.86-2.86l0,0
	c-1.57,0-2.86,1.29-2.86,2.86l0,0C292.14,263.85,293.43,265.13,295,265.13z"/>
<path class="st2" d="M279.57,265.13L279.57,265.13c1.57,0,2.86-1.29,2.86-2.86l0,0c0-1.57-1.29-2.86-2.86-2.86h0
	c-1.57,0-2.86,1.29-2.86,2.86l0,0C276.71,263.85,278,265.13,279.57,265.13z"/>
<path class="st2" d="M279.57,250.56L279.57,250.56c1.57,0,2.86-1.29,2.86-2.86l0,0c0-1.57-1.29-2.86-2.86-2.86h0
	c-1.57,0-2.86,1.29-2.86,2.86l0,0C276.71,249.28,278,250.56,279.57,250.56z"/>
<path class="st2" d="M295,251.13L295,251.13c1.57,0,2.86-1.29,2.86-2.86l0,0c0-1.57-1.29-2.86-2.86-2.86l0,0
	c-1.57,0-2.86,1.29-2.86,2.86l0,0C292.14,249.85,293.43,251.13,295,251.13z"/>
<path class="st2" d="M71.33,457.23L71.33,457.23c-0.23-1.54-1.69-2.62-3.23-2.38h0c-1.54,0.23-2.62,1.69-2.38,3.23v0
	c0.23,1.54,1.69,2.62,3.23,2.38h0C70.49,460.22,71.56,458.77,71.33,457.23z"/>
<path class="st2" d="M68.94,472.03L68.94,472.03c1.54-0.23,2.62-1.69,2.38-3.23l0,0c-0.23-1.54-1.69-2.62-3.23-2.38h0
	c-1.54,0.23-2.62,1.69-2.38,3.23l0,0C65.94,471.19,67.4,472.26,68.94,472.03z"/>
<path class="st2" d="M68.94,484.03L68.94,484.03c1.54-0.23,2.62-1.69,2.38-3.23l0,0c-0.23-1.54-1.69-2.62-3.23-2.38h0
	c-1.54,0.23-2.62,1.69-2.38,3.23l0,0C65.94,483.19,67.4,484.26,68.94,484.03z"/>
<path class="st2" d="M68.94,496.51L68.94,496.51c1.54-0.23,2.62-1.69,2.38-3.23l0,0c-0.23-1.54-1.69-2.62-3.23-2.38h0
	c-1.54,0.23-2.62,1.69-2.38,3.23l0,0C65.94,495.67,67.4,496.75,68.94,496.51z"/>
<path class="st2" d="M68.94,508.37L68.94,508.37c1.54-0.23,2.62-1.69,2.38-3.23l0,0c-0.23-1.54-1.69-2.62-3.23-2.38h0
	c-1.54,0.23-2.62,1.69-2.38,3.23l0,0C65.94,507.53,67.4,508.6,68.94,508.37z"/>
<path class="st2" d="M81.59,508.37L81.59,508.37c1.54-0.23,2.62-1.69,2.38-3.23h0c-0.23-1.54-1.69-2.62-3.23-2.38l0,0
	c-1.54,0.23-2.62,1.69-2.38,3.23l0,0C78.59,507.53,80.04,508.6,81.59,508.37z"/>
<path class="st2" d="M93.59,508.37L93.59,508.37c1.54-0.23,2.62-1.69,2.38-3.23h0c-0.23-1.54-1.69-2.62-3.23-2.38l0,0
	c-1.54,0.23-2.62,1.69-2.38,3.23l0,0C90.59,507.53,92.04,508.6,93.59,508.37z"/>
<path class="st2" d="M93.59,520.44L93.59,520.44c1.54-0.23,2.62-1.69,2.38-3.23h0c-0.23-1.54-1.69-2.62-3.23-2.38l0,0
	c-1.54,0.23-2.62,1.69-2.38,3.23l0,0C90.59,519.6,92.04,520.67,93.59,520.44z"/>
<path class="st2" d="M81.37,520.44L81.37,520.44c1.54-0.23,2.62-1.69,2.38-3.23l0,0c-0.23-1.54-1.69-2.62-3.23-2.38l0,0
	c-1.54,0.23-2.62,1.69-2.38,3.23l0,0C78.37,519.6,79.83,520.67,81.37,520.44z"/>
<path class="st2" d="M105.21,520.44L105.21,520.44c1.54-0.23,2.62-1.69,2.38-3.23h0c-0.23-1.54-1.69-2.62-3.23-2.38l0,0
	c-1.54,0.23-2.62,1.69-2.38,3.23l0,0C102.21,519.6,103.67,520.67,105.21,520.44z"/>
<path class="st2" d="M105.21,508.44L105.21,508.44c1.54-0.23,2.62-1.69,2.38-3.23h0c-0.23-1.54-1.69-2.62-3.23-2.38l0,0
	c-1.54,0.23-2.62,1.69-2.38,3.23l0,0C102.21,507.6,103.67,508.67,105.21,508.44z"/>
<path class="st2" d="M117.71,508.44L117.71,508.44c1.54-0.23,2.62-1.69,2.38-3.23h0c-0.23-1.54-1.69-2.62-3.23-2.38l0,0
	c-1.54,0.23-2.62,1.69-2.38,3.23l0,0C114.71,507.6,116.17,508.67,117.71,508.44z"/>
<path class="st2" d="M130.21,508.44L130.21,508.44c1.54-0.23,2.62-1.69,2.38-3.23l0,0c-0.23-1.54-1.69-2.62-3.23-2.38h0
	c-1.54,0.23-2.62,1.69-2.38,3.23l0,0C127.21,507.6,128.67,508.67,130.21,508.44z"/>
<path class="st2" d="M117.71,520.94L117.71,520.94c1.54-0.23,2.62-1.69,2.38-3.23h0c-0.23-1.54-1.69-2.62-3.23-2.38l0,0
	c-1.54,0.23-2.62,1.69-2.38,3.23l0,0C114.71,520.1,116.17,521.17,117.71,520.94z"/>
<path class="st2" d="M130.21,495.87L130.21,495.87c1.54-0.23,2.62-1.69,2.38-3.23l0,0c-0.23-1.54-1.69-2.62-3.23-2.38h0
	c-1.54,0.23-2.62,1.69-2.38,3.23l0,0C127.21,495.03,128.67,496.1,130.21,495.87z"/>
<path class="st2" d="M117.71,508.37L117.71,508.37c1.54-0.23,2.62-1.69,2.38-3.23h0c-0.23-1.54-1.69-2.62-3.23-2.38l0,0
	c-1.54,0.23-2.62,1.69-2.38,3.23l0,0C114.71,507.53,116.17,508.6,117.71,508.37z"/>
<path class="st2" d="M117.89,495.87L117.89,495.87c1.54-0.23,2.62-1.69,2.38-3.23l0,0c-0.23-1.54-1.69-2.62-3.23-2.38h0
	c-1.54,0.23-2.62,1.69-2.38,3.23h0C114.89,495.03,116.35,496.1,117.89,495.87z"/>
<path class="st2" d="M105.39,508.37L105.39,508.37c1.54-0.23,2.62-1.69,2.38-3.23l0,0c-0.23-1.54-1.69-2.62-3.23-2.38h0
	c-1.54,0.23-2.62,1.69-2.38,3.23h0C102.39,507.53,103.85,508.6,105.39,508.37z"/>
<path class="st2" d="M106.1,495.87L106.1,495.87c1.54-0.23,2.62-1.69,2.38-3.23l0,0c-0.23-1.54-1.69-2.62-3.23-2.38h0
	c-1.54,0.23-2.62,1.69-2.38,3.23l0,0C103.11,495.03,104.56,496.1,106.1,495.87z"/>
<path class="st2" d="M93.6,508.37L93.6,508.37c1.54-0.23,2.62-1.69,2.38-3.23l0,0c-0.23-1.54-1.69-2.62-3.23-2.38h0
	c-1.54,0.23-2.62,1.69-2.38,3.23l0,0C90.61,507.53,92.06,508.6,93.6,508.37z"/>
<path class="st2" d="M94.21,495.87L94.21,495.87c1.54-0.23,2.62-1.69,2.38-3.23h0c-0.23-1.54-1.69-2.62-3.23-2.38l0,0
	c-1.54,0.23-2.62,1.69-2.38,3.23l0,0C91.21,495.03,92.67,496.1,94.21,495.87z"/>
<path class="st2" d="M81.71,508.37L81.71,508.37c1.54-0.23,2.62-1.69,2.38-3.23h0c-0.23-1.54-1.69-2.62-3.23-2.38l0,0
	c-1.54,0.23-2.62,1.69-2.38,3.23l0,0C78.71,507.53,80.17,508.6,81.71,508.37z"/>
<path class="st2" d="M81.14,495.87L81.14,495.87c1.54-0.23,2.62-1.69,2.38-3.23l0,0c-0.23-1.54-1.69-2.62-3.23-2.38h0
	c-1.54,0.23-2.62,1.69-2.38,3.23h0C78.14,495.03,79.6,496.1,81.14,495.87z"/>
<path class="st2" d="M68.64,508.37L68.64,508.37c1.54-0.23,2.62-1.69,2.38-3.23l0,0c-0.23-1.54-1.69-2.62-3.23-2.38h0
	c-1.54,0.23-2.62,1.69-2.38,3.23h0C65.64,507.53,67.1,508.6,68.64,508.37z"/>
<polygon class="st3" points="57,252.3 61.07,259.35 65.14,266.4 57,266.4 48.86,266.4 52.93,259.35 "/>
<circle class="st4" cx="66.14" cy="126.28" r="3.07"/>
<circle cx="176.93" cy="221.06" r="2.86"/>
<circle cx="365.43" cy="42.78" r="3.21"/>
<polygon class="st5" points="395.21,446.56 388.78,457.71 401.65,457.71 395.21,446.56 388.78,457.71 401.65,457.71 "/>
<polygon class="st6" points="467.54,119.56 466.71,115.04 465.88,110.51 470.21,112.06 474.54,113.61 471.04,116.58 "/>
<circle class="st0" cx="587.64" cy="132.45" r="3.94"/>
<circle class="st0" cx="410.64" cy="218.06" r="3.11"/>
<circle class="st7" cx="521.14" cy="311.99" r="3"/>
<circle class="st8" cx="541.32" cy="429.74" r="2.66"/>
<polygon class="st9" points="702.86,112.42 705.77,107.31 708.67,102.2 711.64,107.28 714.61,112.35 708.73,112.38 "/>
<polygon class="st10" points="760.86,206.88 758.57,202.92 756.28,198.95 760.86,198.95 765.43,198.95 763.15,202.92 "/>
<polygon class="st11" points="661.79,420.99 664.25,416.35 666.72,411.71 669.5,416.17 672.28,420.62 667.03,420.81 "/>
<circle class="st12" cx="777.93" cy="295.58" r="2.73"/>
<circle class="st12" cx="780.61" cy="304.15" r="2.73"/>
<circle class="st12" cx="785.32" cy="313.04" r="2.73"/>
<circle class="st12" cx="781.04" cy="321.94" r="2.73"/>
<circle class="st12" cx="776.21" cy="330.83" r="2.73"/>
<circle class="st12" cx="780.93" cy="339.26" r="2.73"/>
<circle class="st12" cx="776.59" cy="347.83" r="2.73"/>
<circle class="st12" cx="781.09" cy="356.94" r="2.73"/>
<circle class="st12" cx="776.38" cy="365.94" r="2.73"/>
<circle class="st12" cx="780.98" cy="374.29" r="2.73"/>
<circle class="st12" cx="776.59" cy="383.51" r="2.73"/>
<circle class="st12" cx="781.2" cy="392.29" r="2.73"/>
<circle class="st12" cx="772.52" cy="339.4" r="2.73"/>
<circle class="st12" cx="767.91" cy="347.97" r="2.73"/>
<circle class="st12" cx="772.25" cy="356.88" r="2.73"/>
<circle class="st12" cx="768.29" cy="365.67" r="2.73"/>
<circle class="st12" cx="772.46" cy="374.24" r="2.73"/>
<circle class="st12" cx="763.59" cy="339.4" r="2.73"/>
<circle class="st12" cx="759.7" cy="347.97" r="2.73"/>
<circle class="st12" cx="764.09" cy="357.08" r="2.73"/>
<circle class="st12" cx="759.48" cy="365.76" r="2.73"/>
<circle class="st12" cx="763.96" cy="374.11" r="2.73"/>
<circle class="st12" cx="759.57" cy="383.44" r="2.73"/>
<circle class="st12" cx="755.18" cy="392.22" r="2.73"/>
<circle class="st12" cx="759.25" cy="401.33" r="2.73"/>
<circle class="st12" cx="755.3" cy="409.47" r="2.73"/>
<circle class="st12" cx="763.91" cy="409.61" r="2.73"/>
<circle class="st12" cx="768.3" cy="383.44" r="2.73"/>
<circle class="st12" cx="764.12" cy="392.01" r="2.73"/>
<circle class="st12" cx="768.14" cy="401.33" r="2.73"/>
<circle class="st12" cx="772.45" cy="409.47" r="2.73"/>
<circle class="st12" cx="772.59" cy="391.92" r="2.73"/>
<circle class="st12" cx="776.39" cy="401.24" r="2.73"/>
<circle class="st12" cx="781.21" cy="409.6" r="2.73"/>
<circle class="st12" cx="772.48" cy="321.94" r="2.73"/>
<circle class="st12" cx="768.14" cy="330.61" r="2.73"/>
<circle class="st12" cx="764.02" cy="321.94" r="2.73"/>
<circle class="st12" cx="759.41" cy="330.61" r="2.73"/>
<circle class="st12" cx="776.32" cy="313.26" r="2.73"/>
<circle class="st12" cx="771.82" cy="304.15" r="2.73"/>
<circle class="st12" cx="768.14" cy="417.95" r="2.73"/>
<circle class="st12" cx="759.25" cy="417.95" r="2.73"/>
<circle class="st12" cx="775.75" cy="435.72" r="2.73"/>
<circle class="st12" cx="781.64" cy="445.26" r="2.73"/>
<circle class="st12" cx="773.02" cy="445.26" r="2.73"/>
<circle class="st12" cx="764.77" cy="445.26" r="2.73"/>
<circle class="st12" cx="756.2" cy="445.26" r="2.73"/>
<circle class="st12" cx="747.55" cy="445.26" r="2.73"/>
<circle class="st12" cx="739.05" cy="445.26" r="2.73"/>
<circle class="st12" cx="730.41" cy="445.26" r="2.73"/>
<circle class="st12" cx="781.81" cy="461.72" r="2.73"/>
<circle class="st12" cx="726.47" cy="523.84" r="2.73"/>
<circle class="st12" cx="734.97" cy="523.84" r="2.73"/>
<circle class="st12" cx="773.19" cy="461.72" r="2.73"/>
<circle class="st12" cx="764.94" cy="461.72" r="2.73"/>
<circle class="st12" cx="756.37" cy="461.72" r="2.73"/>
<circle class="st12" cx="747.72" cy="461.72" r="2.73"/>
<circle class="st12" cx="739.22" cy="461.72" r="2.73"/>
<circle class="st12" cx="730.58" cy="461.72" r="2.73"/>
<circle class="st12" cx="777.3" cy="470.96" r="2.73"/>
<circle class="st12" cx="768.67" cy="470.96" r="2.73"/>
<circle class="st12" cx="760.42" cy="470.96" r="2.73"/>
<circle class="st12" cx="751.85" cy="470.96" r="2.73"/>
<circle class="st12" cx="743.21" cy="470.96" r="2.73"/>
<circle class="st12" cx="734.71" cy="470.96" r="2.73"/>
<circle class="st12" cx="725.76" cy="471.28" r="2.73"/>
<circle class="st12" cx="722.56" cy="462.38" r="2.73"/>
<circle class="st12" cx="712.87" cy="462.38" r="2.73"/>
<circle class="st12" cx="704.46" cy="462.07" r="2.73"/>
<circle class="st12" cx="696.87" cy="462.07" r="2.73"/>
<circle class="st12" cx="717.57" cy="471.12" r="2.73"/>
<circle class="st12" cx="709.16" cy="470.81" r="2.73"/>
<circle class="st12" cx="701.57" cy="470.81" r="2.73"/>
<circle class="st12" cx="703.51" cy="479.69" r="2.73"/>
<circle class="st12" cx="695.1" cy="479.38" r="2.73"/>
<circle class="st12" cx="687.51" cy="479.38" r="2.73"/>
<circle class="st12" cx="670.17" cy="479.38" r="2.73"/>
<circle class="st12" cx="678.86" cy="479.52" r="2.73"/>
<circle class="st12" cx="781.42" cy="479.53" r="2.73"/>
<circle class="st12" cx="772.8" cy="479.53" r="2.73"/>
<circle class="st12" cx="764.55" cy="479.53" r="2.73"/>
<circle class="st12" cx="755.98" cy="479.53" r="2.73"/>
<circle class="st12" cx="747.34" cy="479.53" r="2.73"/>
<circle class="st12" cx="738.84" cy="479.53" r="2.73"/>
<circle class="st12" cx="730.19" cy="479.53" r="2.73"/>
<circle class="st12" cx="709.8" cy="505.7" r="2.73"/>
<circle class="st12" cx="701.18" cy="505.7" r="2.73"/>
<circle class="st12" cx="692.93" cy="505.7" r="2.73"/>
<circle class="st12" cx="684.36" cy="505.7" r="2.73"/>
<circle class="st12" cx="675.71" cy="505.7" r="2.73"/>
<circle class="st12" cx="667.21" cy="505.7" r="2.73"/>
<circle class="st12" cx="662.92" cy="497.09" r="2.73"/>
<circle class="st12" cx="658.26" cy="506.01" r="2.73"/>
<circle class="st12" cx="709.65" cy="523.52" r="2.73"/>
<circle class="st12" cx="718.2" cy="523.84" r="2.73"/>
<circle class="st12" cx="718.06" cy="523.84" r="2.73"/>
<circle class="st12" cx="701.02" cy="523.52" r="2.73"/>
<circle class="st12" cx="692.77" cy="523.84" r="2.73"/>
<circle class="st12" cx="684.2" cy="523.52" r="2.73"/>
<circle class="st12" cx="675.56" cy="523.52" r="2.73"/>
<circle class="st12" cx="667.06" cy="523.52" r="2.73"/>
<circle class="st12" cx="718.2" cy="488.17" r="2.73"/>
<circle class="st12" cx="709.57" cy="488.17" r="2.73"/>
<circle class="st12" cx="701.32" cy="488.17" r="2.73"/>
<circle class="st12" cx="692.75" cy="488.17" r="2.73"/>
<circle class="st12" cx="684.11" cy="488.17" r="2.73"/>
<circle class="st12" cx="675.61" cy="488.17" r="2.73"/>
<circle class="st12" cx="666.65" cy="488.49" r="2.73"/>
<circle class="st12" cx="722.32" cy="496.74" r="2.73"/>
<circle class="st12" cx="713.7" cy="496.74" r="2.73"/>
<circle class="st12" cx="705.45" cy="496.74" r="2.73"/>
<circle class="st12" cx="696.87" cy="496.74" r="2.73"/>
<circle class="st12" cx="688.23" cy="496.74" r="2.73"/>
<circle class="st12" cx="679.73" cy="496.74" r="2.73"/>
<circle class="st12" cx="671.09" cy="496.74" r="2.73"/>
<circle class="st12" cx="777.69" cy="488.15" r="2.73"/>
<circle class="st12" cx="769.06" cy="488.15" r="2.73"/>
<circle class="st12" cx="760.81" cy="488.15" r="2.73"/>
<circle class="st12" cx="752.24" cy="488.15" r="2.73"/>
<circle class="st12" cx="743.6" cy="488.15" r="2.73"/>
<circle class="st12" cx="735.1" cy="488.15" r="2.73"/>
<circle class="st12" cx="726.46" cy="488.15" r="2.73"/>
<circle class="st12" cx="773.34" cy="496.72" r="2.73"/>
<circle class="st12" cx="743.62" cy="523.84" r="2.73"/>
<circle class="st12" cx="752.19" cy="523.84" r="2.73"/>
<circle class="st12" cx="730.97" cy="515.56" r="2.73"/>
<circle class="st12" cx="739.47" cy="515.56" r="2.73"/>
<circle class="st12" cx="714.15" cy="515.23" r="2.73"/>
<circle class="st12" cx="722.56" cy="515.56" r="2.73"/>
<circle class="st12" cx="705.52" cy="515.23" r="2.73"/>
<circle class="st12" cx="697.27" cy="515.56" r="2.73"/>
<circle class="st12" cx="688.7" cy="515.23" r="2.73"/>
<circle class="st12" cx="680.06" cy="515.23" r="2.73"/>
<circle class="st12" cx="671.56" cy="515.23" r="2.73"/>
<circle class="st12" cx="662.92" cy="514.6" r="2.73"/>
<circle class="st12" cx="748.12" cy="515.56" r="2.73"/>
<circle class="st12" cx="756.69" cy="515.56" r="2.73"/>
<circle class="st12" cx="764.71" cy="496.72" r="2.73"/>
<circle class="st12" cx="756.46" cy="496.72" r="2.73"/>
<circle class="st12" cx="747.89" cy="496.72" r="2.73"/>
<circle class="st12" cx="739.25" cy="496.72" r="2.73"/>
<circle class="st12" cx="730.75" cy="496.72" r="2.73"/>
<circle class="st12" cx="692.58" cy="471.3" r="2.73"/>
<circle class="st12" cx="683.73" cy="471.41" r="2.73"/>
<circle class="st12" cx="712.42" cy="479.57" r="2.73"/>
<circle class="st12" cx="721.03" cy="479.53" r="2.73"/>
<circle class="st12" cx="770.21" cy="505.98" r="2.73"/>
<circle class="st12" cx="761.59" cy="505.98" r="2.73"/>
<circle class="st12" cx="753.34" cy="505.98" r="2.73"/>
<circle class="st12" cx="744.76" cy="505.98" r="2.73"/>
<circle class="st12" cx="736.12" cy="505.98" r="2.73"/>
<circle class="st12" cx="727.62" cy="505.98" r="2.73"/>
<circle class="st12" cx="718.98" cy="505.98" r="2.73"/>
<circle class="st12" cx="777.36" cy="453.49" r="2.73"/>
<circle class="st12" cx="768.93" cy="453.49" r="2.73"/>
<circle class="st12" cx="752.07" cy="453.49" r="2.73"/>
<circle class="st12" cx="742.79" cy="453.49" r="2.73"/>
<circle class="st12" cx="734.5" cy="453.49" r="2.73"/>
<circle class="st12" cx="725.64" cy="453.49" r="2.73"/>
<circle class="st12" cx="760.45" cy="453.49" r="2.73"/>
<circle class="st12" cx="718.36" cy="453.49" r="2.73"/>
<circle class="st12" cx="780.64" cy="427.69" r="2.73"/>
<circle class="st12" cx="772.07" cy="427.69" r="2.73"/>
<circle class="st12" cx="763.18" cy="427.69" r="2.73"/>
<circle class="st12" cx="754.82" cy="427.69" r="2.73"/>
<circle class="st12" cx="759.25" cy="435.72" r="2.73"/>
<circle class="st12" cx="767.5" cy="435.72" r="2.73"/>
<circle class="st12" cx="750.68" cy="435.72" r="2.73"/>
<circle class="st12" cx="776.59" cy="417.95" r="2.73"/>
</svg>
