<svg id="visual" viewBox="0 0 900 450" width="100%" height="1000" xmlns="http://www.w3.org/2000/svg" xmlns:xlink="http://www.w3.org/1999/xlink" version="1.1"><path d="M0 88L25 85.7C50 83.3 100 78.7 150 114C200 149.3 250 224.7 300 242C350 259.3 400 218.7 450 239.7C500 260.7 550 343.3 600 387.7C650 432 700 438 750 393.8C800 349.7 850 255.3 875 208.2L900 161L900 0L875 0C850 0 800 0 750 0C700 0 650 0 600 0C550 0 500 0 450 0C400 0 350 0 300 0C250 0 200 0 150 0C100 0 50 0 25 0L0 0Z" fill="#f8d36d" stroke-linecap="round" stroke-linejoin="miter"></path></svg>